<svg width="53" height="31" viewBox="0 0 53 31" fill="none" xmlns="http://www.w3.org/2000/svg">
<path d="M43.5312 20.7856C42.5938 21.2856 41.5312 21.7023 40.3438 22.0356C39.1562 22.3481 37.7083 22.5043 36 22.5043C34.3125 22.5043 32.4583 21.921 30.4375 20.7543C27.375 23.4418 24.6146 25.5252 22.1562 27.0043C17.8438 29.5877 14.8958 30.8793 13.3125 30.8793C10.5833 30.8793 8.39583 30.4314 6.75 29.5356C2.875 27.3481 0.9375 23.0668 0.9375 16.6918C0.9375 12.9418 1.96875 9.43142 4.03125 6.16058C5.51042 3.80642 7.46875 2.11892 9.90625 1.09808C11.1354 0.57725 12.3021 0.316833 13.4062 0.316833C14.5104 0.316833 15.4167 0.379333 16.125 0.504333C16.8542 0.6085 17.5208 0.775167 18.125 1.00433C19.5208 1.52517 20.2188 2.19183 20.2188 3.00433C20.2188 3.96267 19.8854 4.87933 19.2188 5.75433C18.5521 6.62933 17.9688 7.33767 17.4688 7.87933L16.0312 9.44183C14.8646 10.671 14.1458 11.5564 13.875 12.0981C13.4583 12.9523 13.25 13.9002 13.25 14.9418C13.25 15.9627 13.3438 16.7856 13.5312 17.4106C13.7188 18.0148 13.9688 18.5668 14.2812 19.0668C14.9479 20.1918 15.625 20.7543 16.3125 20.7543C17.2708 20.7543 19.3021 19.3377 22.4062 16.5043C22.4062 16.5043 23.3229 15.6606 25.1562 13.9731C25.0729 13.5564 25.0312 13.0877 25.0312 12.5668C25.0312 12.046 25.1771 11.4106 25.4688 10.6606C25.7604 9.91058 26.1562 9.11892 26.6562 8.28558C27.1771 7.45225 27.7812 6.61892 28.4688 5.78558C29.1771 4.95225 29.9271 4.19183 30.7188 3.50433C32.4896 2.00433 34.1667 1.25433 35.75 1.25433C38.5625 1.25433 39.9688 2.72308 39.9688 5.66058C39.9688 7.49392 39.4479 9.45225 38.4062 11.5356C38.4062 12.3064 38.8229 12.9523 39.6562 13.4731C39.9062 13.6398 40.2083 13.7231 40.5625 13.7231C40.9375 13.7231 41.3646 13.5773 41.8438 13.2856C42.3229 12.9939 42.8021 12.6502 43.2812 12.2543L44.625 11.0981C47.1042 8.84808 49.0208 7.72308 50.375 7.72308C51 7.72308 51.5104 7.91058 51.9062 8.28558C52.6146 8.93142 52.9688 9.421 52.9688 9.75433C52.9688 10.0877 52.8854 10.4314 52.7188 10.7856C52.5521 11.1398 52.3333 11.546 52.0625 12.0043C51.7917 12.4418 51.4792 12.9002 51.125 13.3793C49.6875 15.3377 48.6771 16.6189 48.0938 17.2231C47.5312 17.8064 46.8646 18.421 46.0938 19.0668C45.3438 19.6918 44.4896 20.2648 43.5312 20.7856Z" fill="#111827"/>
</svg>
