<svg width="408" height="160" viewBox="0 0 408 160" fill="none" xmlns="http://www.w3.org/2000/svg">
<rect width="408" height="160" rx="20" fill="#111827"/>
<path d="M149 83.2772C149 105.85 129.748 124.149 106 124.149C82.2518 124.149 63 105.85 63 83.2772C63 60.7046 82.2518 42.4059 106 42.4059C129.748 42.4059 149 60.7046 149 83.2772Z" fill="white"/>
<path d="M165.729 101L158.177 68.36H165.281L170.273 93.384H170.785L175.713 68.36H182.689L175.137 101H165.729ZM196.919 101.512C193.378 101.512 190.818 101.043 189.239 100.104C187.661 99.1653 186.637 97.5867 186.167 95.368C185.741 93.1493 185.527 89.5867 185.527 84.68C185.527 79.7307 185.741 76.1467 186.167 73.928C186.637 71.7093 187.661 70.152 189.239 69.256C190.818 68.3173 193.378 67.848 196.919 67.848C200.461 67.848 203.021 68.3173 204.599 69.256C206.178 70.152 207.181 71.7093 207.607 73.928C208.077 76.1467 208.311 79.7307 208.311 84.68C208.311 89.5867 208.077 93.1493 207.607 95.368C207.181 97.5867 206.178 99.1653 204.599 100.104C203.021 101.043 200.461 101.512 196.919 101.512ZM196.919 95.56C198.455 95.56 199.501 95.3467 200.055 94.92C200.653 94.4507 201.015 93.5333 201.143 92.168C201.314 90.8027 201.399 88.3067 201.399 84.68C201.399 81.0107 201.314 78.5147 201.143 77.192C201.015 75.8267 200.653 74.9307 200.055 74.504C199.501 74.0347 198.455 73.8 196.919 73.8C195.383 73.8 194.317 74.0347 193.719 74.504C193.165 74.9307 192.802 75.8267 192.631 77.192C192.503 78.5147 192.439 81.0107 192.439 84.68C192.439 88.3067 192.503 90.8027 192.631 92.168C192.802 93.5333 193.165 94.4507 193.719 94.92C194.317 95.3467 195.383 95.56 196.919 95.56ZM214.236 68.36H220.572L220.828 73.928H221.276C221.916 71.624 222.854 70.0453 224.092 69.192C225.372 68.296 227.036 67.848 229.084 67.848V75.208C227.121 75.208 225.564 75.5493 224.412 76.232C223.26 76.9147 222.428 78.024 221.916 79.56C221.404 81.096 221.148 83.2293 221.148 85.96V101H214.236V68.36ZM236.656 101V74.312H232.368V68.36H236.656V58.888H243.568V68.36H248.816V74.312H243.568V101H236.656ZM253.297 60.488V53.448H260.337V60.488H253.297ZM253.361 101V68.36H260.273V101H253.361ZM283.688 100.552C281.555 101.192 279.23 101.512 276.712 101.512C273.598 101.512 271.294 100.936 269.8 99.784C268.307 98.632 267.326 96.904 266.856 94.6C266.387 92.296 266.152 88.9893 266.152 84.68C266.152 80.3707 266.408 77.0427 266.92 74.696C267.475 72.3493 268.499 70.6213 269.992 69.512C271.486 68.4027 273.704 67.848 276.648 67.848C277.928 67.848 279.208 67.9333 280.488 68.104C281.768 68.2747 282.771 68.5093 283.496 68.808V74.312C281.704 73.9707 280.04 73.8 278.504 73.8C276.84 73.8 275.646 74.056 274.92 74.568C274.195 75.0373 273.704 75.9973 273.448 77.448C273.192 78.8987 273.064 81.3093 273.064 84.68C273.064 88.0507 273.192 90.4827 273.448 91.976C273.704 93.4267 274.195 94.3867 274.92 94.856C275.646 95.3253 276.84 95.56 278.504 95.56C280.168 95.56 281.896 95.3893 283.688 95.048V100.552ZM310.107 87.048H294.939C294.939 89.8213 295.067 91.7627 295.323 92.872C295.579 93.9387 296.134 94.664 296.987 95.048C297.841 95.3893 299.334 95.56 301.467 95.56C303.515 95.56 306.139 95.3893 309.339 95.048V100.488C308.273 100.787 306.843 101.021 305.051 101.192C303.302 101.405 301.595 101.512 299.931 101.512C296.347 101.512 293.702 100.979 291.995 99.912C290.331 98.8027 289.243 97.1387 288.731 94.92C288.262 92.6587 288.027 89.2667 288.027 84.744C288.027 80.264 288.262 76.8933 288.731 74.632C289.201 72.3707 290.246 70.6853 291.867 69.576C293.489 68.424 296.027 67.848 299.483 67.848C302.897 67.848 305.329 68.4027 306.779 69.512C308.273 70.5787 309.19 72.2 309.531 74.376C309.915 76.5093 310.107 79.944 310.107 84.68V87.048ZM299.355 73.8C298.033 73.8 297.073 73.992 296.475 74.376C295.878 74.76 295.473 75.4853 295.259 76.552C295.089 77.6187 294.982 79.4107 294.939 81.928H303.515V81.864C303.515 79.3893 303.409 77.5973 303.195 76.488C302.982 75.3787 302.598 74.6533 302.043 74.312C301.489 73.9707 300.593 73.8 299.355 73.8Z" fill="white"/>
<path d="M125.531 90.7856C124.594 91.2856 123.531 91.7023 122.344 92.0356C121.156 92.3481 119.708 92.5043 118 92.5043C116.312 92.5043 114.458 91.921 112.438 90.7543C109.375 93.4418 106.615 95.5252 104.156 97.0043C99.8438 99.5877 96.8958 100.879 95.3125 100.879C92.5833 100.879 90.3958 100.431 88.75 99.5356C84.875 97.3481 82.9375 93.0668 82.9375 86.6918C82.9375 82.9418 83.9688 79.4314 86.0312 76.1606C87.5104 73.8064 89.4688 72.1189 91.9062 71.0981C93.1354 70.5773 94.3021 70.3168 95.4062 70.3168C96.5104 70.3168 97.4167 70.3793 98.125 70.5043C98.8542 70.6085 99.5208 70.7752 100.125 71.0043C101.521 71.5252 102.219 72.1918 102.219 73.0043C102.219 73.9627 101.885 74.8793 101.219 75.7543C100.552 76.6293 99.9688 77.3377 99.4688 77.8793L98.0312 79.4418C96.8646 80.671 96.1458 81.5564 95.875 82.0981C95.4583 82.9523 95.25 83.9002 95.25 84.9418C95.25 85.9627 95.3438 86.7856 95.5312 87.4106C95.7188 88.0148 95.9688 88.5668 96.2812 89.0668C96.9479 90.1918 97.625 90.7543 98.3125 90.7543C99.2708 90.7543 101.302 89.3377 104.406 86.5043C104.406 86.5043 105.323 85.6606 107.156 83.9731C107.073 83.5564 107.031 83.0877 107.031 82.5668C107.031 82.046 107.177 81.4106 107.469 80.6606C107.76 79.9106 108.156 79.1189 108.656 78.2856C109.177 77.4523 109.781 76.6189 110.469 75.7856C111.177 74.9523 111.927 74.1918 112.719 73.5043C114.49 72.0043 116.167 71.2543 117.75 71.2543C120.562 71.2543 121.969 72.7231 121.969 75.6606C121.969 77.4939 121.448 79.4523 120.406 81.5356C120.406 82.3064 120.823 82.9523 121.656 83.4731C121.906 83.6398 122.208 83.7231 122.562 83.7231C122.938 83.7231 123.365 83.5773 123.844 83.2856C124.323 82.9939 124.802 82.6502 125.281 82.2543L126.625 81.0981C129.104 78.8481 131.021 77.7231 132.375 77.7231C133 77.7231 133.51 77.9106 133.906 78.2856C134.615 78.9314 134.969 79.421 134.969 79.7543C134.969 80.0877 134.885 80.4314 134.719 80.7856C134.552 81.1398 134.333 81.546 134.062 82.0043C133.792 82.4418 133.479 82.9002 133.125 83.3793C131.688 85.3377 130.677 86.6189 130.094 87.2231C129.531 87.8064 128.865 88.421 128.094 89.0668C127.344 89.6918 126.49 90.2648 125.531 90.7856Z" fill="#111827"/>
</svg>
